<svg width="100" height="100" viewBox="0 0 100 100" fill="none" xmlns="http://www.w3.org/2000/svg">
<path fill-rule="evenodd" clip-rule="evenodd" d="M39.1717 12.5142C43.9821 4.17625 56.016 4.17625 60.8264 12.5142L91.4694 65.6288C96.2771 73.9621 90.2628 84.3753 80.6421 84.3753H19.356C9.73531 84.3753 3.72103 73.9621 8.52872 65.6288L39.1717 12.5142ZM49.9999 34.3751C51.7258 34.3751 53.1249 35.7742 53.1249 37.5001V53.1251C53.1249 54.8509 51.7258 56.2501 49.9999 56.2501C48.274 56.2501 46.8749 54.8509 46.8749 53.1251V37.5001C46.8749 35.7742 48.274 34.3751 49.9999 34.3751ZM49.9999 68.7501C51.7258 68.7501 53.1249 67.3509 53.1249 65.6251C53.1249 63.8992 51.7258 62.5001 49.9999 62.5001C48.274 62.5001 46.8749 63.8992 46.8749 65.6251C46.8749 67.3509 48.274 68.7501 49.9999 68.7501Z" fill="#0F172A"/>
</svg>
