<svg width="100" height="100" viewBox="0 0 100 100" fill="none" xmlns="http://www.w3.org/2000/svg">
<path fill-rule="evenodd" clip-rule="evenodd" d="M9.375 50C9.375 27.5634 27.5634 9.375 50 9.375C72.4366 9.375 90.625 27.5634 90.625 50C90.625 72.4366 72.4366 90.625 50 90.625C27.5634 90.625 9.375 72.4366 9.375 50ZM45.651 43.9935C50.427 41.6055 55.8046 45.9193 54.5095 51.0996L51.5553 62.9164L51.7281 62.83C53.2718 62.0581 55.1489 62.6838 55.9208 64.2275C56.6926 65.7712 56.0669 67.6483 54.5232 68.4201L54.3504 68.5066C49.5744 70.8946 44.1968 66.5808 45.4919 61.4006L48.4461 49.5837L48.2732 49.6701C46.7295 50.442 44.8524 49.8163 44.0806 48.2726C43.3088 46.7289 43.9345 44.8518 45.4781 44.08L45.651 43.9935ZM50 37.5C51.7259 37.5 53.125 36.1009 53.125 34.375C53.125 32.6491 51.7259 31.25 50 31.25C48.2741 31.25 46.875 32.6491 46.875 34.375C46.875 36.1009 48.2741 37.5 50 37.5Z" fill="#0F172A"/>
</svg>
