<svg width="111" height="102" viewBox="0 0 111 102" fill="none" xmlns="http://www.w3.org/2000/svg">
<path d="M80.3778 72.9991L80.3778 73.0006C80.3988 80.2738 74.4916 86.1831 67.1938 86.1831C59.9187 86.1831 54.0098 80.2743 54.0098 72.9991C54.0098 65.724 59.9187 59.8151 67.1938 59.8151C74.4902 59.8151 80.3778 65.7235 80.3778 72.9991ZM51 0.5C23.1158 0.5 0.5 23.1158 0.5 51C0.5 78.8842 23.1158 101.5 51 101.5C78.8842 101.5 101.5 78.8842 101.5 51C101.5 23.1158 78.8842 0.5 51 0.5ZM51 10.3826C58.2964 10.3826 64.184 16.2909 64.184 23.5666C64.184 30.8417 58.2751 36.7505 51 36.7505C43.7249 36.7505 37.816 30.8417 37.816 23.5666C37.816 16.2909 43.7035 10.3826 51 10.3826ZM59.4262 49.4068C59.4262 50.0691 58.9081 50.5873 58.2457 50.5873C57.5834 50.5873 57.0653 50.0691 57.0653 49.4068C57.0653 48.7445 57.5834 48.2263 58.2457 48.2263C58.9081 48.2263 59.4262 48.7445 59.4262 49.4068ZM52.1805 42.1392C52.1805 42.8016 51.6623 43.3197 51 43.3197C50.3377 43.3197 49.8195 42.8016 49.8195 42.1392C49.8195 41.4769 50.3377 40.9588 51 40.9588C51.6405 40.9588 52.1805 41.4988 52.1805 42.1392ZM44.9129 49.4068C44.9129 50.0691 44.3947 50.5873 43.7324 50.5873C43.0701 50.5873 42.5519 50.0691 42.5519 49.4068C42.5519 48.7445 43.0701 48.2263 43.7324 48.2263C44.3947 48.2263 44.9129 48.7445 44.9129 49.4068ZM11.823 43.2959C11.823 36.0208 17.7318 30.112 25.007 30.112C32.2821 30.112 38.191 36.0208 38.191 43.2959C38.191 50.5711 32.2821 56.4799 25.007 56.4799C17.7313 56.4799 11.823 50.5924 11.823 43.2959ZM34.5443 86.1831C27.2692 86.1831 21.3603 80.2743 21.3603 72.9991C21.3603 65.724 27.2692 59.8151 34.5443 59.8151C41.8408 59.8151 47.7283 65.7235 47.7283 72.9991C47.7283 80.2743 41.8194 86.1831 34.5443 86.1831ZM47.6807 49.4068C47.6807 47.566 49.1592 46.0875 51 46.0875C52.8408 46.0875 54.3193 47.566 54.3193 49.4068C54.3193 51.2476 52.8408 52.7261 51 52.7261C49.161 52.7261 47.6807 51.2277 47.6807 49.4068ZM51 57.833C50.3377 57.833 49.8195 57.3149 49.8195 56.6525C49.8195 55.9902 50.3377 55.4721 51 55.4721C51.6623 55.4721 52.1805 55.9902 52.1805 56.6525C52.1805 57.3106 51.6447 57.833 51 57.833ZM76.9712 56.5017C69.696 56.5017 63.7872 50.5929 63.7872 43.3178C63.7872 36.0416 69.6971 30.112 76.9712 30.112C84.2676 30.112 90.1552 36.0203 90.1552 43.2959C90.1552 50.5726 84.2666 56.5017 76.9712 56.5017Z" fill="#878787" stroke="white"/>
<path d="M91.6882 79.3894L91.8119 79.8738C91.6882 79.3894 91.688 79.3894 91.6878 79.3895L91.6872 79.3896L91.686 79.39L91.6825 79.3909L91.6722 79.3936C91.6638 79.3959 91.6525 79.399 91.6384 79.403C91.6102 79.4111 91.571 79.4229 91.5223 79.4386C91.425 79.4701 91.2894 79.5179 91.1287 79.5848C90.8088 79.7179 90.3809 79.9306 89.9569 80.2486C89.1004 80.891 88.2418 81.9841 88.3669 83.6862L88.367 83.6872C88.9741 91.7145 93.7383 95.6272 98.3167 97.5068C100.596 98.4427 102.832 98.8779 104.494 99.0799C105.327 99.1811 106.018 99.2242 106.503 99.2419C106.746 99.2508 106.937 99.2533 107.069 99.2536C107.135 99.2538 107.186 99.2534 107.221 99.2529L107.261 99.2522L107.273 99.252L107.276 99.2519L107.277 99.2519C107.277 99.2519 107.278 99.2519 107.264 98.7521L107.278 99.2519L107.704 99.24L107.759 98.8175L109.527 85.4172L109.708 84.0478L108.694 84.9825L108.694 84.9829L108.694 84.983L108.693 84.9835L108.693 84.9838L108.693 84.9839L108.68 84.9948C108.667 85.0057 108.646 85.0239 108.615 85.0483C108.552 85.0972 108.453 85.171 108.315 85.2624C108.037 85.4451 107.602 85.6982 106.987 85.9617C105.76 86.4882 103.812 87.0591 100.978 87.1875C98.3355 87.2967 96.1759 85.5089 94.6288 83.5596C93.8645 82.5966 93.2735 81.6233 92.8732 80.8891C92.6734 80.5226 92.522 80.2173 92.4211 80.0049C92.3706 79.8987 92.3328 79.8158 92.308 79.7601C92.2955 79.7323 92.2863 79.7113 92.2804 79.6977L92.2739 79.6827L92.2726 79.6795L92.2724 79.6791L92.2723 79.679L92.2723 79.679L92.1049 79.283L91.6882 79.3894Z" fill="black" stroke="white"/>
<path d="M51 85.8518C70.2481 85.8518 85.8518 70.2481 85.8518 51C85.8518 31.7519 70.2481 16.1482 51 16.1482C31.7519 16.1482 16.1482 31.7519 16.1482 51C16.1482 70.2481 31.7519 85.8518 51 85.8518Z" fill="black" stroke="white"/>
<path d="M91.8119 79.8738C91.8119 79.8738 95.2165 87.9271 101 87.687C106.783 87.4251 109.031 85.3518 109.031 85.3518L107.264 98.7521C107.264 98.7521 90.0441 99.2322 88.8656 83.6495C88.6473 80.6814 91.8119 79.8738 91.8119 79.8738Z" fill="black"/>
<path d="M51 85.3518C69.972 85.3518 85.3518 69.972 85.3518 51C85.3518 32.028 69.972 16.6482 51 16.6482C32.028 16.6482 16.6482 32.028 16.6482 51C16.6482 69.972 32.028 85.3518 51 85.3518Z" fill="black"/>
<path d="M51 1C23.392 1 1 23.392 1 51C1 78.608 23.392 101 51 101C78.608 101 101 78.608 101 51C101 23.392 78.608 1 51 1ZM51 9.88258C58.5731 9.88258 64.684 16.0153 64.684 23.5666C64.684 31.1179 58.5513 37.2505 51 37.2505C43.4487 37.2505 37.316 31.1179 37.316 23.5666C37.316 16.0153 43.4269 9.88258 51 9.88258ZM59.9262 49.4068C59.9262 50.3453 59.1842 51.0873 58.2457 51.0873C57.3073 51.0873 56.5653 50.3453 56.5653 49.4068C56.5653 48.4684 57.3073 47.7263 58.2457 47.7263C59.1842 47.7263 59.9262 48.4684 59.9262 49.4068ZM52.6805 42.1392C52.6805 43.0777 51.9385 43.8197 51 43.8197C50.0615 43.8197 49.3195 43.0777 49.3195 42.1392C49.3195 41.2008 50.0615 40.4588 51 40.4588C51.9166 40.4588 52.6805 41.2226 52.6805 42.1392ZM45.4129 49.4068C45.4129 50.3453 44.6709 51.0873 43.7324 51.0873C42.794 51.0873 42.0519 50.3453 42.0519 49.4068C42.0519 48.4684 42.794 47.7263 43.7324 47.7263C44.6709 47.7263 45.4129 48.4684 45.4129 49.4068ZM11.323 43.2959C11.323 35.7447 17.4557 29.612 25.007 29.612C32.5583 29.612 38.691 35.7447 38.691 43.2959C38.691 50.8472 32.5583 56.9799 25.007 56.9799C17.4557 56.9799 11.323 50.8691 11.323 43.2959ZM34.5443 86.6831C26.993 86.6831 20.8603 80.5504 20.8603 72.9991C20.8603 65.4478 26.993 59.3151 34.5443 59.3151C42.1174 59.3151 48.2283 65.4478 48.2283 72.9991C48.2283 80.5504 42.0956 86.6831 34.5443 86.6831ZM47.1807 49.4068C47.1807 47.2898 48.883 45.5875 51 45.5875C53.117 45.5875 54.8193 47.2898 54.8193 49.4068C54.8193 51.5238 53.117 53.2261 51 53.2261C48.883 53.2261 47.1807 51.502 47.1807 49.4068ZM51 58.333C50.0615 58.333 49.3195 57.591 49.3195 56.6526C49.3195 55.7141 50.0615 54.9721 51 54.9721C51.9385 54.9721 52.6805 55.7141 52.6805 56.6526C52.6805 57.591 51.9166 58.333 51 58.333ZM67.1938 86.6831C59.6425 86.6831 53.5098 80.5504 53.5098 72.9991C53.5098 65.4478 59.6425 59.3151 67.1938 59.3151C74.7669 59.3151 80.8778 65.4478 80.8778 72.9991C80.8996 80.5504 74.7669 86.6831 67.1938 86.6831ZM76.9712 57.0017C69.4199 57.0017 63.2872 50.8691 63.2872 43.3178C63.2872 35.7665 69.4199 29.612 76.9712 29.612C84.5443 29.612 90.6552 35.7447 90.6552 43.2959C90.6552 50.8472 84.5443 57.0017 76.9712 57.0017Z" fill="#878787"/>
<path opacity="0.2" d="M51.3274 97.0279C25.9454 97.0279 5.27762 76.3819 5.27762 50.9782C5.27762 25.5962 25.9236 4.92841 51.3274 4.92841C76.7093 4.92841 97.3771 25.5744 97.3771 50.9782C97.3553 76.3819 76.7093 97.0279 51.3274 97.0279ZM51.3274 7.13268C27.1458 7.13268 7.46007 26.8184 7.46007 51C7.46007 75.1816 27.1458 94.8673 51.3274 94.8673C75.509 94.8673 95.1947 75.1816 95.1947 51C95.1729 26.8184 75.509 7.13268 51.3274 7.13268Z" fill="#333333"/>
</svg>
