<svg width="109" height="100" viewBox="0 0 109 100" fill="none" xmlns="http://www.w3.org/2000/svg">
<path d="M90.8119 78.8738C90.8119 78.8738 94.2165 86.9271 100 86.687C105.783 86.4251 108.031 84.3518 108.031 84.3518L106.264 97.7521C106.264 97.7521 89.0441 98.2322 87.8656 82.6495C87.6473 79.6814 90.8119 78.8738 90.8119 78.8738Z" fill="black"/>
<path d="M50 84.3518C68.972 84.3518 84.3518 68.972 84.3518 50C84.3518 31.028 68.972 15.6482 50 15.6482C31.028 15.6482 15.6482 31.028 15.6482 50C15.6482 68.972 31.028 84.3518 50 84.3518Z" fill="black"/>
<path d="M50 0C22.392 0 0 22.392 0 50C0 77.608 22.392 100 50 100C77.608 100 100 77.608 100 50C100 22.392 77.608 0 50 0ZM50 8.88258C57.5731 8.88258 63.684 15.0153 63.684 22.5666C63.684 30.1179 57.5513 36.2505 50 36.2505C42.4487 36.2505 36.316 30.1179 36.316 22.5666C36.316 15.0153 42.4269 8.88258 50 8.88258ZM58.9262 48.4068C58.9262 49.3453 58.1842 50.0873 57.2457 50.0873C56.3073 50.0873 55.5653 49.3453 55.5653 48.4068C55.5653 47.4684 56.3073 46.7263 57.2457 46.7263C58.1842 46.7263 58.9262 47.4684 58.9262 48.4068ZM51.6805 41.1392C51.6805 42.0777 50.9385 42.8197 50 42.8197C49.0615 42.8197 48.3195 42.0777 48.3195 41.1392C48.3195 40.2008 49.0615 39.4588 50 39.4588C50.9166 39.4588 51.6805 40.2226 51.6805 41.1392ZM44.4129 48.4068C44.4129 49.3453 43.6709 50.0873 42.7324 50.0873C41.794 50.0873 41.0519 49.3453 41.0519 48.4068C41.0519 47.4684 41.794 46.7263 42.7324 46.7263C43.6709 46.7263 44.4129 47.4684 44.4129 48.4068ZM10.323 42.2959C10.323 34.7447 16.4557 28.612 24.007 28.612C31.5583 28.612 37.691 34.7447 37.691 42.2959C37.691 49.8472 31.5583 55.9799 24.007 55.9799C16.4557 55.9799 10.323 49.8691 10.323 42.2959ZM33.5443 85.6831C25.993 85.6831 19.8603 79.5504 19.8603 71.9991C19.8603 64.4478 25.993 58.3151 33.5443 58.3151C41.1174 58.3151 47.2283 64.4478 47.2283 71.9991C47.2283 79.5504 41.0956 85.6831 33.5443 85.6831ZM46.1807 48.4068C46.1807 46.2898 47.883 44.5875 50 44.5875C52.117 44.5875 53.8193 46.2898 53.8193 48.4068C53.8193 50.5238 52.117 52.2261 50 52.2261C47.883 52.2261 46.1807 50.502 46.1807 48.4068ZM50 57.333C49.0615 57.333 48.3195 56.591 48.3195 55.6526C48.3195 54.7141 49.0615 53.9721 50 53.9721C50.9385 53.9721 51.6805 54.7141 51.6805 55.6526C51.6805 56.591 50.9166 57.333 50 57.333ZM66.1938 85.6831C58.6425 85.6831 52.5098 79.5504 52.5098 71.9991C52.5098 64.4478 58.6425 58.3151 66.1938 58.3151C73.7669 58.3151 79.8778 64.4478 79.8778 71.9991C79.8996 79.5504 73.7669 85.6831 66.1938 85.6831ZM75.9712 56.0017C68.4199 56.0017 62.2872 49.8691 62.2872 42.3178C62.2872 34.7665 68.4199 28.612 75.9712 28.612C83.5443 28.612 89.6552 34.7447 89.6552 42.2959C89.6552 49.8472 83.5443 56.0017 75.9712 56.0017Z" fill="#878787"/>
<path opacity="0.2" d="M50.3274 96.0279C24.9454 96.0279 4.27762 75.3819 4.27762 49.9782C4.27762 24.5962 24.9236 3.92841 50.3274 3.92841C75.7093 3.92841 96.3771 24.5744 96.3771 49.9782C96.3553 75.3819 75.7093 96.0279 50.3274 96.0279ZM50.3274 6.13268C26.1458 6.13268 6.46007 25.8184 6.46007 50C6.46007 74.1816 26.1458 93.8673 50.3274 93.8673C74.509 93.8673 94.1947 74.1816 94.1947 50C94.1729 25.8184 74.509 6.13268 50.3274 6.13268Z" fill="#333333"/>
</svg>
