<svg width="100" height="100" viewBox="0 0 100 100" fill="none" xmlns="http://www.w3.org/2000/svg">
<path d="M50 84.3518C68.972 84.3518 84.3518 68.972 84.3518 50C84.3518 31.028 68.972 15.6482 50 15.6482C31.028 15.6482 15.6482 31.028 15.6482 50C15.6482 68.972 31.028 84.3518 50 84.3518Z" fill="black"/>
<path className="body" d="M50.02 0C22.412 0 0.0200195 22.392 0.0200195 50C0.0200195 77.608 22.412 100 50.02 100C77.628 100 100.02 77.608 100.02 50C100.02 22.392 77.628 0 50.02 0ZM50.02 8.88258C57.5931 8.88258 63.704 15.0153 63.704 22.5666C63.704 30.1179 57.5713 36.2505 50.02 36.2505C42.4687 36.2505 36.336 30.1179 36.336 22.5666C36.336 15.0153 42.4469 8.88258 50.02 8.88258ZM58.97 50.0068C58.97 50.9453 58.2285 51.6873 57.29 51.6873C56.3515 51.6873 55.61 50.9453 55.61 50.0068C55.61 49.0683 56.3515 48.3263 57.29 48.3263C58.2285 48.3263 58.97 49.0683 58.97 50.0068ZM51.7005 42.7392C51.7005 43.6777 50.9585 44.4197 50.02 44.4197C49.0816 44.4197 48.3395 43.6777 48.3395 42.7392C48.3395 41.8008 49.0816 41.0588 50.02 41.0588C50.9366 41.0588 51.7005 41.8226 51.7005 42.7392ZM44.4329 50.0068C44.4329 50.9453 43.6909 51.6873 42.7524 51.6873C41.814 51.6873 41.072 50.9453 41.072 50.0068C41.072 49.0683 41.814 48.3263 42.7524 48.3263C43.6909 48.3263 44.4329 49.0683 44.4329 50.0068ZM10.343 42.2959C10.343 34.7447 16.4757 28.612 24.027 28.612C31.5783 28.612 37.711 34.7447 37.711 42.2959C37.711 49.8472 31.5783 55.9799 24.027 55.9799C16.4757 55.9799 10.343 49.8691 10.343 42.2959ZM33.5643 85.6831C26.013 85.6831 19.8803 79.5504 19.8803 71.9991C19.8803 64.4478 26.013 58.3151 33.5643 58.3151C41.1374 58.3151 47.2483 64.4478 47.2483 71.9991C47.2483 79.5504 41.1156 85.6831 33.5643 85.6831ZM46.2007 50.0068C46.2007 47.8898 47.903 46.1875 50.02 46.1875C52.137 46.1875 53.8393 47.8898 53.8393 50.0068C53.8393 52.1238 52.137 53.8261 50.02 53.8261C47.903 53.8261 46.2007 52.102 46.2007 50.0068ZM50.02 58.96C49.0816 58.96 48.3395 58.2185 48.3395 57.28C48.3395 56.3415 49.0816 55.6 50.02 55.6C50.9585 55.6 51.7005 56.3415 51.7005 57.28C51.7005 58.2185 50.9366 58.96 50.02 58.96ZM66.2138 85.6831C58.6625 85.6831 52.5298 79.5504 52.5298 71.9991C52.5298 64.4478 58.6625 58.3151 66.2138 58.3151C73.7869 58.3151 79.8978 64.4478 79.8978 71.9991C79.9196 79.5504 73.7869 85.6831 66.2138 85.6831ZM75.9912 56.0017C68.4399 56.0017 62.3072 49.8691 62.3072 42.3178C62.3072 34.7665 68.4399 28.612 75.9912 28.612C83.5643 28.612 89.6752 34.7447 89.6752 42.2959C89.6752 49.8472 83.5643 56.0017 75.9912 56.0017Z" fill="#878787"/>
<path opacity="0.2" d="M50.3274 96.0279C24.9455 96.0279 4.27765 75.3819 4.27765 49.9782C4.27765 24.5962 24.9237 3.92841 50.3274 3.92841C75.7093 3.92841 96.3772 24.5744 96.3772 49.9782C96.3553 75.3819 75.7093 96.0279 50.3274 96.0279ZM50.3274 6.13268C26.1458 6.13268 6.4601 25.8184 6.4601 50C6.4601 74.1816 26.1458 93.8673 50.3274 93.8673C74.509 93.8673 94.1947 74.1816 94.1947 50C94.1729 25.8184 74.509 6.13268 50.3274 6.13268Z" fill="#333333"/>
</svg>