<svg width="102" height="102" viewBox="0 0 102 102" fill="none" xmlns="http://www.w3.org/2000/svg">
<path d="M51 85.8518C70.2481 85.8518 85.8518 70.2481 85.8518 51C85.8518 31.7519 70.2481 16.1482 51 16.1482C31.7519 16.1482 16.1482 31.7519 16.1482 51C16.1482 70.2481 31.7519 85.8518 51 85.8518Z" fill="black" stroke="white"/>
<path className="body" d="M80.3978 72.9991V73.0006C80.4188 80.2738 74.5116 86.1831 67.2138 86.1831C59.9387 86.1831 54.0298 80.2743 54.0298 72.9991C54.0298 65.724 59.9387 59.8151 67.2138 59.8151C74.5103 59.8151 80.3978 65.7235 80.3978 72.9991ZM51.02 0.5C23.1358 0.5 0.52002 23.1158 0.52002 51C0.52002 78.8842 23.1358 101.5 51.02 101.5C78.9042 101.5 101.52 78.8842 101.52 51C101.52 23.1158 78.9042 0.5 51.02 0.5ZM51.02 10.3826C58.3165 10.3826 64.204 16.2909 64.204 23.5666C64.204 30.8417 58.2952 36.7505 51.02 36.7505C43.7449 36.7505 37.836 30.8417 37.836 23.5666C37.836 16.2909 43.7236 10.3826 51.02 10.3826ZM59.47 51.0068C59.47 51.6693 58.9521 52.1873 58.29 52.1873C57.6279 52.1873 57.11 51.6693 57.11 51.0068C57.11 50.3443 57.6279 49.8263 58.29 49.8263C58.9521 49.8263 59.47 50.3443 59.47 51.0068ZM52.2005 43.7392C52.2005 44.4016 51.6823 44.9197 51.02 44.9197C50.3577 44.9197 49.8395 44.4016 49.8395 43.7392C49.8395 43.0769 50.3577 42.5588 51.02 42.5588C51.6605 42.5588 52.2005 43.0988 52.2005 43.7392ZM44.9329 51.0068C44.9329 51.6691 44.4148 52.1873 43.7524 52.1873C43.0901 52.1873 42.572 51.6691 42.572 51.0068C42.572 50.3445 43.0901 49.8263 43.7524 49.8263C44.4148 49.8263 44.9329 50.3445 44.9329 51.0068ZM11.843 43.2959C11.843 36.0208 17.7519 30.112 25.027 30.112C32.3021 30.112 38.211 36.0208 38.211 43.2959C38.211 50.5711 32.3021 56.4799 25.027 56.4799C17.7513 56.4799 11.843 50.5924 11.843 43.2959ZM34.5643 86.1831C27.2892 86.1831 21.3803 80.2743 21.3803 72.9991C21.3803 65.724 27.2892 59.8151 34.5643 59.8151C41.8608 59.8151 47.7483 65.7235 47.7483 72.9991C47.7483 80.2743 41.8395 86.1831 34.5643 86.1831ZM47.7007 51.0068C47.7007 49.166 49.1792 47.6875 51.02 47.6875C52.8609 47.6875 54.3393 49.166 54.3393 51.0068C54.3393 52.8477 52.8609 54.3261 51.02 54.3261C49.181 54.3261 47.7007 52.8277 47.7007 51.0068ZM51.02 59.46C50.3575 59.46 49.8395 58.9421 49.8395 58.28C49.8395 57.6179 50.3575 57.1 51.02 57.1C51.6825 57.1 52.2005 57.6179 52.2005 58.28C52.2005 58.9379 51.6649 59.46 51.02 59.46ZM76.9912 56.5017C69.7161 56.5017 63.8072 50.5929 63.8072 43.3178C63.8072 36.0416 69.7171 30.112 76.9912 30.112C84.2877 30.112 90.1752 36.0203 90.1752 43.2959C90.1752 50.5726 84.2866 56.5017 76.9912 56.5017Z" fill="#878787" stroke="white"/>
<path opacity="0.2" d="M51.3274 97.0279C25.9455 97.0279 5.27765 76.3819 5.27765 50.9782C5.27765 25.5962 25.9237 4.92841 51.3274 4.92841C76.7093 4.92841 97.3772 25.5744 97.3772 50.9782C97.3553 76.3819 76.7093 97.0279 51.3274 97.0279ZM51.3274 7.13268C27.1458 7.13268 7.4601 26.8184 7.4601 51C7.4601 75.1816 27.1458 94.8673 51.3274 94.8673C75.509 94.8673 95.1947 75.1816 95.1947 51C95.1729 26.8184 75.509 7.13268 51.3274 7.13268Z" fill="#333333"/>
</svg>